<?xml version="1.0" encoding="UTF-8" standalone="no"?>
<svg width="100px" height="93px" viewBox="0 0 100 93" version="1.1" xmlns="http://www.w3.org/2000/svg" xmlns:xlink="http://www.w3.org/1999/xlink">
  <!-- Generator: Sketch 49.3 (51167) - http://www.bohemiancoding.com/sketch -->
  <title>smokeball-icon</title>
  <desc>Created with Sketch.</desc>
  <defs>
    <polygon id="path-1" points="69.0464759 90.7134039 0.00204636721 90.7134039 0.00204636721 0.865783951 69.0464759 0.865783951 69.0464759 90.7134039"></polygon>
    <polygon id="path-3" points="0.289991367 0.874977954 64.9961224 0.874977954 64.9961224 74.7214894 0.289991367 74.7214894"></polygon>
  </defs>
  <g id="smokeball-icon" stroke="none" stroke-width="1" fill="none" fill-rule="evenodd">
    <g id="Group-3" transform="translate(35.000000, 47.528020) rotate(-360.000000) translate(-35.000000, -47.528020) translate(-0.000000, 2.028020)">
      <mask id="mask-2" fill="white">
        <use xlink:href="#path-1"></use>
      </mask>
      <g id="Clip-2"></g>
      <path d="M7.01290042,42.8484471 C7.01290042,55.8957928 13.1642802,67.9379312 23.4943419,75.8005238 C33.4437793,81.9864145 40.3482222,84.4973977 48.8938517,83.6061411 C58.7859907,82.5724462 62.0356219,78.0184912 62.0356219,68.7152372 C62.0356219,61.418328 54.1734791,51.4517187 42.7261009,47.3535661 C27.0591136,41.8635882 17.0646561,31.0708369 14.5803663,19.106022 C9.74684701,25.9349198 7.01290042,34.1597125 7.01290042,42.8484471 M19.4916476,81.518403 C7.64727425,72.6261852 0.00204636721,58.6143289 0.00204636721,42.8484471 C0.00204636721,24.9500608 9.8532581,9.31847795 24.5175255,0.865783951 C23.600753,2.48958025 22.8354117,4.12558554 22.274707,5.7412425 C17.9977996,18.0153519 24.6198439,33.6347257 45.0630523,40.8014056 C60.5786084,46.3524286 69.0464759,59.5829092 69.0464759,68.7152372 C69.0464759,78.5719656 65.5758371,88.8519392 49.6264511,90.5205018 C36.8080069,91.8594215 26.6743965,86.0031737 19.4916476,81.518403" id="Fill-1" fill="#ED7323" mask="url(#mask-2)"></path>
    </g>
    <g id="Group-6" transform="translate(66.685157, 36.639131) rotate(-360.000000) translate(-66.685157, -36.639131) translate(34.185157, -0.860869)">
      <mask id="mask-4" fill="white">
        <use xlink:href="#path-3"></use>
      </mask>
      <g id="Clip-5"></g>
      <path d="M57.9852684,45.737336 C57.9852684,37.1340644 55.2308581,28.6406737 50.1599602,21.6449198 C47.7984524,18.3851182 44.1763825,15.0846199 40.6893728,13.0253695 C36.5925456,10.6039189 34.3579126,9.65161728 30.9404794,8.91500794 C27.5639735,8.19060758 24.0769638,7.82433774 20.5531194,7.82433774 C11.3485598,7.82433774 7.30493815,11.1899506 7.30493815,15.3857751 C7.30493815,20.0618201 10.8656171,22.8698889 26.2870404,28.7546243 C41.6757218,34.4358765 52.0385253,41.7368554 57.5882732,51.4470758 C57.8502082,49.5709603 57.9852684,47.6663571 57.9852684,45.737336 M55.8570465,17.5874638 C61.7874187,25.7796993 64.9961224,35.693403 64.9961224,45.737336 C64.9961224,56.5992716 61.3699598,66.6228563 55.2431363,74.7214894 C55.3618256,73.5290776 55.4191239,72.3203871 55.4191239,71.095418 C55.4191239,53.7220185 45.1954734,43.1530988 23.8395852,35.2701578 C7.41134925,29.0028739 0.289991367,24.6971684 0.289991367,15.3857751 C0.289991367,8.2231649 6.31858916,0.873350088 20.5531194,0.873350088 C24.5435355,0.873350088 28.5298588,1.28438624 32.426142,2.12273721 C36.9486135,3.09538713 39.9404024,4.48721252 44.2787008,7.05110141 C48.6169993,9.6149903 52.9512051,13.5788439 55.8570465,17.5874638" id="Fill-4" fill="#ED7323" mask="url(#mask-4)"></path>
    </g>
  </g>
</svg>